<svg width="231" height="168" viewBox="0 0 231 168" fill="none" xmlns="http://www.w3.org/2000/svg">
<circle opacity="0.4" cx="170.5" cy="170.5" r="170.5" fill="#B8C5EB"/>
<g clip-path="url(#clip0_7196_12582)">
<path d="M68 56C54.645 56 43 67.025 43 79.75C43 92.26 54.3825 102.105 68 102.105C70.9126 102.107 73.807 101.646 76.575 100.74C77.735 101.865 78.1325 102.247 80.595 104.622C82.37 105.962 84.04 106.417 85.5325 105.573C87.0375 104.722 87.49 103.068 87.1825 100.888L86.1825 95.09C90.525 91.005 93 85.605 93 79.75C93 67.025 81.3575 56 68 56ZM68 59.5C79.465 59.5 89.5 69 89.5 79.75C89.5 84.8625 87.22 89.57 83.2 93.075L83.15 93.1175L82.4075 93.7625L82.575 94.7375L82.92 96.7475L83.0125 97.2825L83.725 101.427C83.7658 101.707 83.7909 101.988 83.8 102.27V102.507C83.8 102.519 83.8017 102.526 83.805 102.528C83.7875 102.502 83.4475 102.395 82.865 101.97L77.44 96.705L76.405 97.095C73.7163 98.0976 70.8696 98.6099 68 98.6075C56.21 98.6075 46.5 90.2075 46.5 79.75C46.5 69.0025 56.535 59.5 68 59.5ZM79.9325 75.5325C79.4289 75.5141 78.9267 75.5974 78.4559 75.7775C77.9852 75.9575 77.5556 76.2306 77.1928 76.5804C76.83 76.9302 76.5414 77.3495 76.3443 77.8134C76.1472 78.2772 76.0456 78.776 76.0456 79.28C76.0456 79.784 76.1472 80.2828 76.3443 80.7466C76.5414 81.2105 76.83 81.6298 77.1928 81.9796C77.5556 82.3294 77.9852 82.6025 78.4559 82.7825C78.9267 82.9626 79.4289 83.0459 79.9325 83.0275C80.9027 82.9921 81.8214 82.5817 82.4952 81.8828C83.1691 81.1839 83.5456 80.2509 83.5456 79.28C83.5456 78.3091 83.1691 77.3761 82.4952 76.6772C81.8214 75.9783 80.9027 75.5679 79.9325 75.5325ZM67.4375 75.5325C66.9339 75.5141 66.4317 75.5974 65.9609 75.7775C65.4902 75.9575 65.0606 76.2306 64.6978 76.5804C64.335 76.9302 64.0464 77.3495 63.8493 77.8134C63.6522 78.2772 63.5506 78.776 63.5506 79.28C63.5506 79.784 63.6522 80.2828 63.8493 80.7466C64.0464 81.2105 64.335 81.6298 64.6978 81.9796C65.0606 82.3294 65.4902 82.6025 65.9609 82.7825C66.4317 82.9626 66.9339 83.0459 67.4375 83.0275C68.4077 82.9921 69.3264 82.5817 70.0002 81.8828C70.6741 81.1839 71.0506 80.2509 71.0506 79.28C71.0506 78.3091 70.6741 77.3761 70.0002 76.6772C69.3264 75.9783 68.4077 75.5679 67.4375 75.5325ZM54.945 75.5325C54.4414 75.5141 53.9392 75.5974 53.4684 75.7775C52.9977 75.9575 52.5681 76.2306 52.2053 76.5804C51.8425 76.9302 51.5539 77.3495 51.3568 77.8134C51.1597 78.2772 51.0581 78.776 51.0581 79.28C51.0581 79.784 51.1597 80.2828 51.3568 80.7466C51.5539 81.2105 51.8425 81.6298 52.2053 81.9796C52.5681 82.3294 52.9977 82.6025 53.4684 82.7825C53.9392 82.9626 54.4414 83.0459 54.945 83.0275C55.9152 82.9921 56.8339 82.5817 57.5077 81.8828C58.1816 81.1839 58.5581 80.2509 58.5581 79.28C58.5581 78.3091 58.1816 77.3761 57.5077 76.6772C56.8339 75.9783 55.9152 75.5679 54.945 75.5325Z" fill="black"/>
</g>
<path d="M102.122 87V77.288H98.3944V75.48H107.778V77.288H104.05V87H102.122ZM111.704 87.24C110.83 87.24 110.062 87.0507 109.4 86.672C108.739 86.2933 108.222 85.768 107.848 85.096C107.48 84.424 107.296 83.6507 107.296 82.776C107.296 81.832 107.478 81.0133 107.84 80.32C108.203 79.6213 108.707 79.08 109.352 78.696C109.998 78.312 110.744 78.12 111.592 78.12C112.488 78.12 113.248 78.3307 113.872 78.752C114.502 79.168 114.968 79.7573 115.272 80.52C115.576 81.2827 115.691 82.1813 115.616 83.216H113.704V82.512C113.699 81.5733 113.534 80.888 113.208 80.456C112.883 80.024 112.371 79.808 111.672 79.808C110.883 79.808 110.296 80.0533 109.912 80.544C109.528 81.0293 109.336 81.7413 109.336 82.68C109.336 83.5547 109.528 84.232 109.912 84.712C110.296 85.192 110.856 85.432 111.592 85.432C112.067 85.432 112.475 85.328 112.816 85.12C113.163 84.9067 113.43 84.6 113.616 84.2L115.52 84.776C115.19 85.5547 114.678 86.16 113.984 86.592C113.296 87.024 112.536 87.24 111.704 87.24ZM108.728 83.216V81.76H114.672V83.216H108.728ZM117.561 87V75.24H119.489V87H117.561ZM122.046 87V75.24H123.974V87H122.046ZM132.813 87.248C132.173 87.248 131.645 87.1413 131.229 86.928C130.813 86.7147 130.482 86.4427 130.237 86.112C129.992 85.7813 129.81 85.4293 129.693 85.056C129.576 84.6827 129.498 84.3307 129.461 84C129.429 83.664 129.413 83.392 129.413 83.184V78.36H131.365V82.52C131.365 82.7867 131.384 83.088 131.421 83.424C131.458 83.7547 131.544 84.0747 131.677 84.384C131.816 84.688 132.018 84.9387 132.285 85.136C132.557 85.3333 132.922 85.432 133.381 85.432C133.626 85.432 133.869 85.392 134.109 85.312C134.349 85.232 134.565 85.096 134.757 84.904C134.954 84.7067 135.112 84.4373 135.229 84.096C135.346 83.7547 135.405 83.3227 135.405 82.8L136.549 83.288C136.549 84.024 136.405 84.6907 136.117 85.288C135.834 85.8853 135.416 86.3627 134.861 86.72C134.306 87.072 133.624 87.248 132.813 87.248ZM135.637 87V84.32H135.405V78.36H137.341V87H135.637ZM142.925 87.24C141.858 87.24 140.991 87 140.325 86.52C139.658 86.04 139.253 85.3653 139.109 84.496L141.077 84.192C141.178 84.6187 141.402 84.9547 141.749 85.2C142.095 85.4453 142.533 85.568 143.061 85.568C143.525 85.568 143.882 85.4773 144.133 85.296C144.389 85.1093 144.517 84.856 144.517 84.536C144.517 84.3387 144.469 84.1813 144.373 84.064C144.282 83.9413 144.079 83.824 143.765 83.712C143.45 83.6 142.967 83.4587 142.317 83.288C141.591 83.096 141.015 82.8907 140.589 82.672C140.162 82.448 139.855 82.184 139.669 81.88C139.482 81.576 139.389 81.208 139.389 80.776C139.389 80.2373 139.53 79.768 139.813 79.368C140.095 78.968 140.49 78.6613 140.997 78.448C141.503 78.2293 142.101 78.12 142.789 78.12C143.461 78.12 144.055 78.224 144.573 78.432C145.095 78.64 145.517 78.936 145.837 79.32C146.157 79.704 146.354 80.1547 146.429 80.672L144.461 81.024C144.413 80.656 144.245 80.3653 143.957 80.152C143.674 79.9387 143.295 79.8187 142.821 79.792C142.367 79.7653 142.002 79.8347 141.725 80C141.447 80.16 141.309 80.3867 141.309 80.68C141.309 80.8453 141.365 80.9867 141.477 81.104C141.589 81.2213 141.813 81.3387 142.149 81.456C142.49 81.5733 142.997 81.7173 143.669 81.888C144.357 82.064 144.906 82.2667 145.317 82.496C145.733 82.72 146.031 82.9893 146.213 83.304C146.399 83.6187 146.493 84 146.493 84.448C146.493 85.3173 146.175 86 145.541 86.496C144.911 86.992 144.039 87.24 142.925 87.24ZM151.448 87V75.48H153.184L157.168 83.64L161.152 75.48H162.888V87H161.088V79.616L157.552 87H156.784L153.256 79.616V87H151.448ZM168.952 87.24C168.088 87.24 167.333 87.0453 166.688 86.656C166.042 86.2667 165.541 85.7307 165.184 85.048C164.832 84.36 164.656 83.5707 164.656 82.68C164.656 81.7733 164.837 80.9787 165.2 80.296C165.562 79.6133 166.066 79.08 166.712 78.696C167.357 78.312 168.104 78.12 168.952 78.12C169.821 78.12 170.578 78.3147 171.224 78.704C171.869 79.0933 172.37 79.632 172.728 80.32C173.085 81.0027 173.264 81.7893 173.264 82.68C173.264 83.576 173.082 84.368 172.72 85.056C172.362 85.7387 171.861 86.2747 171.216 86.664C170.57 87.048 169.816 87.24 168.952 87.24ZM168.952 85.432C169.72 85.432 170.29 85.176 170.664 84.664C171.037 84.152 171.224 83.4907 171.224 82.68C171.224 81.8427 171.034 81.176 170.656 80.68C170.277 80.1787 169.709 79.928 168.952 79.928C168.434 79.928 168.008 80.0453 167.672 80.28C167.341 80.5093 167.096 80.832 166.936 81.248C166.776 81.6587 166.696 82.136 166.696 82.68C166.696 83.5173 166.885 84.1867 167.264 84.688C167.648 85.184 168.21 85.432 168.952 85.432ZM175.026 87V78.36H176.73V80.464L176.522 80.192C176.629 79.904 176.77 79.6427 176.946 79.408C177.128 79.168 177.344 78.9707 177.594 78.816C177.808 78.672 178.042 78.56 178.298 78.48C178.56 78.3947 178.826 78.344 179.098 78.328C179.37 78.3067 179.634 78.3173 179.89 78.36V80.16C179.634 80.0853 179.338 80.0613 179.002 80.088C178.672 80.1147 178.373 80.208 178.106 80.368C177.84 80.512 177.621 80.696 177.45 80.92C177.285 81.144 177.162 81.4 177.082 81.688C177.002 81.9707 176.962 82.2773 176.962 82.608V87H175.026ZM185.189 87.24C184.314 87.24 183.546 87.0507 182.885 86.672C182.223 86.2933 181.706 85.768 181.333 85.096C180.965 84.424 180.781 83.6507 180.781 82.776C180.781 81.832 180.962 81.0133 181.325 80.32C181.687 79.6213 182.191 79.08 182.837 78.696C183.482 78.312 184.229 78.12 185.077 78.12C185.973 78.12 186.733 78.3307 187.357 78.752C187.986 79.168 188.453 79.7573 188.757 80.52C189.061 81.2827 189.175 82.1813 189.101 83.216H187.189V82.512C187.183 81.5733 187.018 80.888 186.693 80.456C186.367 80.024 185.855 79.808 185.157 79.808C184.367 79.808 183.781 80.0533 183.397 80.544C183.013 81.0293 182.821 81.7413 182.821 82.68C182.821 83.5547 183.013 84.232 183.397 84.712C183.781 85.192 184.341 85.432 185.077 85.432C185.551 85.432 185.959 85.328 186.301 85.12C186.647 84.9067 186.914 84.6 187.101 84.2L189.005 84.776C188.674 85.5547 188.162 86.16 187.469 86.592C186.781 87.024 186.021 87.24 185.189 87.24ZM182.213 83.216V81.76H188.157V83.216H182.213Z" fill="black"/>
<defs>
<clipPath id="clip0_7196_12582">
<rect width="50" height="50" fill="white" transform="matrix(-1 0 0 1 93 56)"/>
</clipPath>
</defs>
</svg>
